<?xml version="1.0" encoding="UTF-8" standalone="no"?>
<!DOCTYPE svg PUBLIC "-//W3C//DTD SVG 1.1//EN"
 "http://www.w3.org/Graphics/SVG/1.1/DTD/svg11.dtd">
<!-- Generated by graphviz version 2.40.1 (20161225.0304)
 -->
<!-- Title: G Pages: 1 -->
<svg width="277pt" height="274pt"
 viewBox="0.00 0.00 277.00 274.00" xmlns="http://www.w3.org/2000/svg" xmlns:xlink="http://www.w3.org/1999/xlink">
<g id="graph0" class="graph" transform="scale(1 1) rotate(0) translate(4 270)">
<title>G</title>
<polygon fill="#ffffff" stroke="transparent" points="-4,4 -4,-270 273,-270 273,4 -4,4"/>
<!-- a -->
<g id="node1" class="node">
<title>a</title>
<ellipse fill="none" stroke="#000000" cx="45.4174" cy="-200.3073" rx="18" ry="18"/>
<text text-anchor="middle" x="45.4174" y="-196.6073" font-family="Fira Sans" font-size="14.00" fill="#000000">a</text>
</g>
<!-- b -->
<g id="node2" class="node">
<title>b</title>
<ellipse fill="none" stroke="#000000" cx="131.0478" cy="-193.6432" rx="18" ry="18"/>
<text text-anchor="middle" x="131.0478" y="-189.9432" font-family="Fira Sans" font-size="14.00" fill="#000000">b</text>
</g>
<!-- a&#45;&#45;b -->
<g id="edge1" class="edge">
<title>a&#45;&#45;b</title>
<path fill="none" stroke="#000000" d="M63.5774,-198.894C78.1092,-197.7631 98.3891,-196.1848 112.914,-195.0545"/>
</g>
<!-- j -->
<g id="node3" class="node">
<title>j</title>
<ellipse fill="none" stroke="#000000" cx="18.4768" cy="-116.9674" rx="18" ry="18"/>
<text text-anchor="middle" x="18.4768" y="-113.2674" font-family="Fira Sans" font-size="14.00" fill="#000000">j</text>
</g>
<!-- a&#45;&#45;j -->
<g id="edge2" class="edge">
<title>a&#45;&#45;j</title>
<path fill="none" stroke="#000000" d="M39.8353,-183.0393C35.2116,-168.7361 28.6734,-148.5105 24.0517,-134.2134"/>
</g>
<!-- c -->
<g id="node4" class="node">
<title>c</title>
<ellipse fill="none" stroke="#000000" cx="156.0824" cy="-245.3577" rx="18" ry="18"/>
<text text-anchor="middle" x="156.0824" y="-241.6577" font-family="Fira Sans" font-size="14.00" fill="#000000">c</text>
</g>
<!-- b&#45;&#45;c -->
<g id="edge3" class="edge">
<title>b&#45;&#45;c</title>
<path fill="none" stroke="#000000" d="M138.9689,-210.006C141.8912,-216.0426 145.2016,-222.881 148.1269,-228.9238"/>
</g>
<!-- d -->
<g id="node5" class="node">
<title>d</title>
<ellipse fill="none" stroke="#000000" cx="233.0258" cy="-200.3794" rx="18" ry="18"/>
<text text-anchor="middle" x="233.0258" y="-196.6794" font-family="Fira Sans" font-size="14.00" fill="#000000">d</text>
</g>
<!-- b&#45;&#45;d -->
<g id="edge4" class="edge">
<title>b&#45;&#45;d</title>
<path fill="none" stroke="#000000" d="M149.2794,-194.8475C167.8414,-196.0736 196.4473,-197.9632 214.952,-199.1855"/>
</g>
<!-- e -->
<g id="node6" class="node">
<title>e</title>
<ellipse fill="none" stroke="#000000" cx="205.3669" cy="-248.1932" rx="18" ry="18"/>
<text text-anchor="middle" x="205.3669" y="-244.4932" font-family="Fira Sans" font-size="14.00" fill="#000000">e</text>
</g>
<!-- b&#45;&#45;e -->
<g id="edge5" class="edge">
<title>b&#45;&#45;e</title>
<path fill="none" stroke="#000000" d="M145.7309,-204.4205C158.76,-213.9839 177.6944,-227.8817 190.7143,-237.4383"/>
</g>
<!-- f -->
<g id="node7" class="node">
<title>f</title>
<ellipse fill="none" stroke="#000000" cx="184.1064" cy="-157.9" rx="18" ry="18"/>
<text text-anchor="middle" x="184.1064" y="-154.2" font-family="Fira Sans" font-size="14.00" fill="#000000">f</text>
</g>
<!-- b&#45;&#45;f -->
<g id="edge6" class="edge">
<title>b&#45;&#45;f</title>
<path fill="none" stroke="#000000" d="M146.1104,-183.4962C153.2183,-178.708 161.6861,-173.0036 168.822,-168.1965"/>
</g>
<!-- k -->
<g id="node12" class="node">
<title>k</title>
<ellipse fill="none" stroke="#000000" cx="92.2409" cy="-88.3737" rx="18" ry="18"/>
<text text-anchor="middle" x="92.2409" y="-84.6737" font-family="Fira Sans" font-size="14.00" fill="#000000">k</text>
</g>
<!-- j&#45;&#45;k -->
<g id="edge20" class="edge">
<title>j&#45;&#45;k</title>
<path fill="none" stroke="#000000" d="M35.5851,-110.3356C47.5019,-105.7162 63.3289,-99.5811 75.2253,-94.9696"/>
</g>
<!-- c&#45;&#45;d -->
<g id="edge7" class="edge">
<title>c&#45;&#45;d</title>
<path fill="none" stroke="#000000" d="M171.653,-236.2557C185.0024,-228.4521 204.1357,-217.2675 217.4783,-209.4679"/>
</g>
<!-- c&#45;&#45;e -->
<g id="edge8" class="edge">
<title>c&#45;&#45;e</title>
<path fill="none" stroke="#000000" d="M174.1542,-246.3974C178.4399,-246.644 183.0116,-246.907 187.2972,-247.1536"/>
</g>
<!-- c&#45;&#45;f -->
<g id="edge9" class="edge">
<title>c&#45;&#45;f</title>
<path fill="none" stroke="#000000" d="M161.619,-228.0789C166.532,-212.7463 173.6717,-190.4646 178.5813,-175.1429"/>
</g>
<!-- d&#45;&#45;e -->
<g id="edge10" class="edge">
<title>d&#45;&#45;e</title>
<path fill="none" stroke="#000000" d="M223.9692,-216.0354C220.9443,-221.2646 217.5721,-227.0941 214.5385,-232.3383"/>
</g>
<!-- d&#45;&#45;f -->
<g id="edge11" class="edge">
<title>d&#45;&#45;f</title>
<path fill="none" stroke="#000000" d="M219.399,-188.5465C212.727,-182.7529 204.7074,-175.789 198,-169.9646"/>
</g>
<!-- e&#45;&#45;f -->
<g id="edge12" class="edge">
<title>e&#45;&#45;f</title>
<path fill="none" stroke="#000000" d="M201.1665,-230.3542C197.4392,-214.5245 192.0227,-191.5204 188.2981,-175.702"/>
</g>
<!-- g -->
<g id="node8" class="node">
<title>g</title>
<ellipse fill="none" stroke="#000000" cx="213.9172" cy="-75.299" rx="18" ry="18"/>
<text text-anchor="middle" x="213.9172" y="-71.599" font-family="Fira Sans" font-size="14.00" fill="#000000">g</text>
</g>
<!-- f&#45;&#45;g -->
<g id="edge13" class="edge">
<title>f&#45;&#45;g</title>
<path fill="none" stroke="#000000" d="M190.2832,-140.785C195.3995,-126.6087 202.6342,-106.5624 207.7483,-92.3921"/>
</g>
<!-- h -->
<g id="node9" class="node">
<title>h</title>
<ellipse fill="none" stroke="#000000" cx="141.4885" cy="-25.8545" rx="18" ry="18"/>
<text text-anchor="middle" x="141.4885" y="-22.1545" font-family="Fira Sans" font-size="14.00" fill="#000000">h</text>
</g>
<!-- g&#45;&#45;h -->
<g id="edge14" class="edge">
<title>g&#45;&#45;h</title>
<path fill="none" stroke="#000000" d="M198.9099,-65.0541C186.4794,-56.5682 168.9018,-44.5686 156.4766,-36.0864"/>
</g>
<!-- m -->
<g id="node10" class="node">
<title>m</title>
<ellipse fill="none" stroke="#000000" cx="250.3178" cy="-19.2609" rx="18.6979" ry="18.6979"/>
<text text-anchor="middle" x="250.3178" y="-15.5609" font-family="Fira Sans" font-size="14.00" fill="#000000">m</text>
</g>
<!-- g&#45;&#45;m -->
<g id="edge15" class="edge">
<title>g&#45;&#45;m</title>
<path fill="none" stroke="#000000" d="M223.8638,-59.9864C228.8316,-52.3386 234.8402,-43.0884 239.8746,-35.338"/>
</g>
<!-- i -->
<g id="node11" class="node">
<title>i</title>
<ellipse fill="none" stroke="#000000" cx="54.5411" cy="-36.16" rx="18" ry="18"/>
<text text-anchor="middle" x="54.5411" y="-32.46" font-family="Fira Sans" font-size="14.00" fill="#000000">i</text>
</g>
<!-- h&#45;&#45;i -->
<g id="edge16" class="edge">
<title>h&#45;&#45;i</title>
<path fill="none" stroke="#000000" d="M123.473,-27.9898C108.5506,-29.7585 87.4495,-32.2595 72.5336,-34.0274"/>
</g>
<!-- h&#45;&#45;k -->
<g id="edge17" class="edge">
<title>h&#45;&#45;k</title>
<path fill="none" stroke="#000000" d="M130.3135,-40.0411C122.3673,-50.1286 111.7258,-63.6379 103.7135,-73.8094"/>
</g>
<!-- i&#45;&#45;j -->
<g id="edge18" class="edge">
<title>i&#45;&#45;j</title>
<path fill="none" stroke="#000000" d="M47.0685,-52.9033C40.8377,-66.8644 32.0098,-86.6446 25.8163,-100.522"/>
</g>
<!-- i&#45;&#45;k -->
<g id="edge19" class="edge">
<title>i&#45;&#45;k</title>
<path fill="none" stroke="#000000" d="M65.2435,-50.9827C70.381,-58.098 76.5183,-66.5981 81.6422,-73.6947"/>
</g>
</g>
</svg>
